<?xml version="1.0" encoding="utf-8"?>
<!-- Generator: Adobe Illustrator 16.0.0, SVG Export Plug-In . SVG Version: 6.00 Build 0)  -->
<!DOCTYPE svg PUBLIC "-//W3C//DTD SVG 1.1//EN" "http://www.w3.org/Graphics/SVG/1.1/DTD/svg11.dtd">
<svg version="1.1" id="Layer_1" xmlns="http://www.w3.org/2000/svg" xmlns:xlink="http://www.w3.org/1999/xlink" x="0px" y="0px"
	 width="180px" height="180px" viewBox="35 15 180 180" enable-background="new 35 15 180 180" xml:space="preserve">
<rect x="35" y="15" fill="none" width="180" height="180"/>
<g>
	<g>
		<circle fill="#FFFFFF" cx="125" cy="104.861" r="57.5"/>
		<circle fill="#DE5833" cx="125.001" cy="105.001" r="51.15"/>
		<g>
			<g>
				<g>
					<g>
						<g>
							<g>
								<g>
									<g>
										<g>
											<g>
												<g>
													<g>
														<g>
															<g>
																<g>
																	<g>
																		<g>
																			<defs>
																				<path id="SVGID_1_" d="M176.354,104.859c0,28.316-23.035,51.354-51.354,51.354
																					c-28.312,0-51.348-23.039-51.348-51.354c0-28.313,23.036-51.349,51.348-51.349
																					C153.316,53.51,176.354,76.546,176.354,104.859z"/>
																			</defs>
																			<clipPath id="SVGID_2_">
																				<use xlink:href="#SVGID_1_"  overflow="visible"/>
																			</clipPath>
																			<g clip-path="url(#SVGID_2_)">
																				<path fill="#D5D7D8" d="M145.962,181.193c-1.801-8.285-12.262-27.039-16.229-34.969
																					c-3.965-7.937-7.938-19.11-6.128-26.322c0.328-1.312-3.436-11.309-2.354-12.016
																					c8.416-5.489,10.632,0.6,14.002-1.861c1.732-1.273,4.09,1.047,4.688-1.06c2.158-7.567-3.006-20.76-8.771-26.526
																					c-1.885-1.879-4.771-3.06-8.029-3.687c-1.255-1.713-3.275-3.36-6.139-4.879
																					c-3.188-1.697-10.121-3.938-13.717-4.535c-2.492-0.41-3.055,0.287-4.119,0.461
																					c0.992,0.088,5.699,2.414,6.615,2.549c-0.916,0.619-3.607-0.028-5.324,0.742
																					c-0.865,0.392-1.512,1.877-1.506,2.58c4.91-0.496,12.574-0.016,17.1,2c-3.602,0.41-9.08,0.867-11.436,2.105
																					c-6.848,3.608-9.873,12.035-8.07,22.133c1.805,10.075,9.738,46.85,12.263,59.129
																					c2.524,12.264-5.408,20.189-10.455,22.354l5.407,0.363l-1.801,3.967c6.484,0.719,13.695-1.438,13.695-1.438
																					c-1.438,3.965-11.176,5.412-11.176,5.412s4.69,1.438,12.258-1.447c7.578-2.883,12.263-4.688,12.263-4.688
																					l3.604,9.373l6.854-6.851l2.885,7.216C142.354,191.295,147.766,189.488,145.962,181.193z"/>
																				<path fill="#FFFFFF" d="M148.141,179.512c-1.795-8.289-12.257-27.043-16.229-34.979
																					c-3.971-7.936-7.935-19.112-6.13-26.321c0.335-1.309,0.341-6.668,1.429-7.379
																					c8.411-5.494,7.812-0.184,11.188-2.646c1.74-1.271,3.134-2.805,3.738-4.911
																					c2.163-7.572-3.007-20.76-8.772-26.529c-1.88-1.879-4.769-3.062-8.021-3.686
																					c-1.252-1.718-3.271-3.361-6.13-4.882c-5.391-2.862-12.073-4.006-18.266-2.883
																					c0.99,0.09,3.256,2.138,4.168,2.273c-1.381,0.936-5.053,0.815-5.029,2.896
																					c4.916-0.492,10.304,0.285,14.834,2.297c-3.602,0.41-6.955,1.3-9.311,2.543
																					c-6.854,3.603-8.656,10.812-6.854,20.914c1.808,10.097,9.742,46.873,12.256,59.126
																					c2.527,12.26-5.401,20.188-10.448,22.354l5.407,0.359l-1.801,3.973c6.484,0.721,13.695-1.439,13.695-1.439
																					c-1.438,3.979-11.176,5.406-11.176,5.406s4.686,1.439,12.258-1.445c7.583-2.883,12.269-4.688,12.269-4.688
																					l3.604,9.373l6.853-6.854l2.892,7.215C144.544,189.607,149.948,187.803,148.141,179.512z"/>
																				<path fill="#2D4F8E" d="M106.69,96.726c0-2.093,1.692-3.787,3.789-3.787c2.09,0,3.785,1.694,3.785,3.787
																					c0,2.094-1.695,3.786-3.785,3.786C108.383,100.513,106.69,98.82,106.69,96.726z"/>
																				<path fill="#FFFFFF" d="M111.176,95.464c0-0.545,0.441-0.983,0.98-0.983c0.543,0,0.984,0.438,0.984,0.983
																					c0,0.543-0.441,0.984-0.984,0.984C111.618,96.449,111.176,96.007,111.176,95.464z"/>
																				<path fill="#2D4F8E" d="M132.536,94.48c0-1.793,1.461-3.25,3.252-3.25c1.801,0,3.256,1.457,3.256,3.25
																					c0,1.801-1.455,3.258-3.256,3.258C133.997,97.738,132.536,96.281,132.536,94.48z"/>
																				<path fill="#FFFFFF" d="M136.395,93.398c0-0.463,0.379-0.843,0.838-0.843c0.479,0,0.85,0.38,0.85,0.843
																					c0,0.469-0.367,0.842-0.85,0.842C136.771,94.24,136.395,93.867,136.395,93.398z"/>
																				
																					<linearGradient id="SVGID_3_" gradientUnits="userSpaceOnUse" x1="3380.9873" y1="3974.0146" x2="3389.5566" y2="3974.0146" gradientTransform="matrix(1 0 0 1 -3278 -3887)">
																					<stop  offset="0.0056" style="stop-color:#6176B9"/>
																					<stop  offset="0.691" style="stop-color:#394A9F"/>
																				</linearGradient>
																				<path fill="url(#SVGID_3_)" d="M111.556,85.753c0,0-2.854-1.291-5.63,0.453
																					c-2.77,1.742-2.668,3.523-2.668,3.523s-1.473-3.283,2.453-4.892C109.642,83.228,111.556,85.753,111.556,85.753z
																					"/>
																				
																					<linearGradient id="SVGID_4_" gradientUnits="userSpaceOnUse" x1="3407.9414" y1="3971.4062" x2="3415.7471" y2="3971.4062" gradientTransform="matrix(1 0 0 1 -3278 -3887)">
																					<stop  offset="0.0056" style="stop-color:#6176B9"/>
																					<stop  offset="0.691" style="stop-color:#394A9F"/>
																				</linearGradient>
																				<path fill="url(#SVGID_4_)" d="M137.747,85.493c0,0-2.052-1.172-3.644-1.152
																					c-3.271,0.043-4.162,1.488-4.162,1.488s0.55-3.445,4.729-2.754C136.941,83.452,137.747,85.493,137.747,85.493z"
																					/>
																			</g>
																		</g>
																	</g>
																</g>
															</g>
														</g>
													</g>
												</g>
											</g>
										</g>
									</g>
								</g>
							</g>
						</g>
					</g>
				</g>
				<path fill="#FDD20A" d="M122.069,111.33c0.379-2.291,6.299-6.625,10.49-6.887c4.201-0.265,5.51-0.205,9.01-1.043
					c3.515-0.838,12.535-3.088,15.033-4.242c2.504-1.156,13.104,0.572,5.631,4.738c-3.229,1.809-11.938,5.131-18.172,6.987
					c-6.219,1.861-9.99-1.775-12.06,1.281c-1.646,2.432-0.334,5.762,7.099,6.453c10.037,0.93,19.66-4.521,20.719-1.625
					c1.064,2.895-8.625,6.508-14.521,6.623c-5.896,0.111-17.771-3.896-19.559-5.137C123.954,117.24,121.575,114.348,122.069,111.33z
					"/>
			</g>
			<g>
				<path fill="#65BC46" d="M127.012,141.229c0,0-14.103-7.521-14.333-4.471c-0.237,3.057,0,15.51,1.644,16.449
					c1.646,0.938,13.394-6.105,13.394-6.105L127.012,141.229z"/>
				<path fill="#65BC46" d="M132.413,140.756c0,0,9.635-7.285,11.754-6.816c2.11,0.479,2.582,15.513,0.701,16.229
					c-1.882,0.69-12.908-3.813-12.908-3.813L132.413,140.756z"/>
				<path fill="#43A244" d="M123.597,142.025c0,4.932-0.707,7.049,1.41,7.521c2.107,0.474,6.104,0,7.519-0.938
					c1.41-0.938,0.231-7.279-0.23-8.466C131.814,138.969,123.597,139.91,123.597,142.025z"/>
				<path fill="#65BC46" d="M124.493,140.93c0,4.935-0.707,7.049,1.407,7.521c2.105,0.479,6.104,0,7.521-0.938
					c1.41-0.939,0.229-7.278-0.233-8.467C132.712,137.871,124.493,138.816,124.493,140.93z"/>
			</g>
		</g>
		<g>
			<path fill="#DE5833" d="M125,165c-33.084,0-60-26.916-60-60s26.916-60,60-60s60,26.916,60,60S158.084,165,125,165z M125,50
				c-30.327,0-55,24.673-55,55c0,30.327,24.673,55,55,55s55-24.673,55-55C180,74.673,155.327,50,125,50z"/>
		</g>
	</g>
</g>
</svg>
