<?xml version="1.0" encoding="UTF-8" standalone="no"?>
<!-- Generator: Adobe Illustrator 15.1.0, SVG Export Plug-In . SVG Version: 6.00 Build 0)  -->

<svg
   xmlns:dc="http://purl.org/dc/elements/1.1/"
   xmlns:cc="http://creativecommons.org/ns#"
   xmlns:rdf="http://www.w3.org/1999/02/22-rdf-syntax-ns#"
   xmlns:svg="http://www.w3.org/2000/svg"
   xmlns="http://www.w3.org/2000/svg"
   xmlns:xlink="http://www.w3.org/1999/xlink"
   xmlns:sodipodi="http://sodipodi.sourceforge.net/DTD/sodipodi-0.dtd"
   xmlns:inkscape="http://www.inkscape.org/namespaces/inkscape"
   version="1.1"
   id="Layer_1"
   x="0px"
   y="0px"
   width="250px"
   height="200px"
   viewBox="0 0 250 200"
   enable-background="new 0 0 250 200"
   xml:space="preserve"
   inkscape:version="0.48.4 r9939"
   sodipodi:docname="normal.svg"><metadata
     id="metadata116"><rdf:RDF><cc:Work
         rdf:about=""><dc:format>image/svg+xml</dc:format><dc:type
           rdf:resource="http://purl.org/dc/dcmitype/StillImage" /><dc:title></dc:title></cc:Work></rdf:RDF></metadata><defs
     id="defs114" /><sodipodi:namedview
     pagecolor="#ffffff"
     bordercolor="#666666"
     borderopacity="1"
     objecttolerance="10"
     gridtolerance="10"
     guidetolerance="10"
     inkscape:pageopacity="0"
     inkscape:pageshadow="2"
     inkscape:window-width="640"
     inkscape:window-height="480"
     id="namedview112"
     showgrid="false"
     inkscape:zoom="1.38"
     inkscape:cx="125"
     inkscape:cy="115.54799"
     inkscape:window-x="0"
     inkscape:window-y="0"
     inkscape:window-maximized="0"
     inkscape:current-layer="Layer_1" /><path
     sodipodi:type="arc"
     style="fill:#ffffff;fill-opacity:1;fill-rule:nonzero;stroke:none"
     id="path3038"
     sodipodi:cx="136.62799"
     sodipodi:cy="77.17086"
     sodipodi:rx="56.555824"
     sodipodi:ry="59.859772"
     d="m 193.18382,77.17086 a 56.555824,59.859772 0 1 1 -113.111654,0 56.555824,59.859772 0 1 1 113.111654,0 z"
     transform="matrix(1,0,0,0.97402597,-9.3287956,2.7818376)" /><g
     id="g3"><linearGradient
       id="SVGID_1_"
       gradientUnits="userSpaceOnUse"
       x1="277.5186"
       y1="-668.0073"
       x2="277.5186"
       y2="-548.688"
       gradientTransform="matrix(1 0 0 -1 -150 -530)"><stop
         offset="0"
         style="stop-color:#D14427"
         id="stop6" /><stop
         offset="1"
         style="stop-color:#E55225"
         id="stop8" /></linearGradient><path
       fill="url(#SVGID_1_)"
       d="M179.717,78.348c0,28.828-23.369,52.201-52.199,52.201c-28.83,0-52.199-23.373-52.199-52.201   c0-28.828,23.369-52.199,52.199-52.199C156.348,26.149,179.717,49.52,179.717,78.348z M187.178,78.348   c0,32.947-26.713,59.66-59.66,59.66c-32.947,0-59.66-26.713-59.66-59.66c0-32.947,26.713-59.66,59.66-59.66   C160.465,18.688,187.178,45.4,187.178,78.348z M182.256,78.348c0-30.229-24.51-54.736-54.738-54.736   c-30.227,0-54.738,24.508-54.738,54.736s24.512,54.736,54.738,54.736C157.746,133.084,182.256,108.576,182.256,78.348z"
       id="path10" /><g
       id="g12"><g
         id="g14"><g
           id="g16"><g
             id="g18"><g
               id="g20"><defs
                 id="defs22"><path
                   id="SVGID_2_"
                   d="M179.922,78.207c0,28.895-23.506,52.4-52.404,52.4c-28.893,0-52.396-23.508-52.396-52.4         c0-28.891,23.506-52.396,52.396-52.396C156.416,25.81,179.922,49.316,179.922,78.207z" /></defs><clipPath
                 id="SVGID_3_"><use
                   xlink:href="#SVGID_2_"
                   overflow="visible"
                   id="use26" /></clipPath><g
                 clip-path="url(#SVGID_3_)"
                 id="g28"><path
                   fill="#D5D7D8"
                   d="M148.482,154.541c-1.801-8.285-12.262-27.039-16.229-34.969c-3.965-7.93-7.939-19.11-6.129-26.322         c0.327-1.312-3.436-11.307-2.354-12.014c8.415-5.49,10.633,0.598,14.002-1.863c1.738-1.273,4.09,1.047,4.693-1.059         c2.158-7.568-3.006-20.76-8.768-26.527c-1.885-1.879-4.773-3.059-8.031-3.686c-1.254-1.713-3.275-3.361-6.138-4.879         c-3.188-1.697-10.121-3.938-13.717-4.535c-2.492-0.41-3.055,0.287-4.119,0.461c0.992,0.088,5.699,2.414,6.615,2.549         c-0.916,0.619-3.607-0.029-5.324,0.742c-0.865,0.391-1.512,1.877-1.506,2.58c4.91-0.496,12.574-0.016,17.1,2         c-3.602,0.41-9.08,0.867-11.436,2.105c-6.848,3.609-9.873,12.035-8.07,22.133c1.804,10.075,9.738,46.849,12.262,59.129         c2.525,12.263-5.408,20.189-10.455,22.354l5.408,0.363l-1.801,3.967c6.484,0.719,13.695-1.441,13.695-1.441         c-1.438,3.965-11.176,5.412-11.176,5.412s4.691,1.438,12.258-1.447c7.575-2.883,12.261-4.688,12.261-4.688l3.605,9.373         l6.854-6.846l2.884,7.211C144.875,164.643,150.285,162.836,148.482,154.541z"
                   id="path30" /><path
                   fill="#FFFFFF"
                   d="M150.66,152.859c-1.795-8.289-12.256-27.043-16.227-34.975c-3.968-7.935-7.933-19.112-6.129-26.321         c0.334-1.309,0.34-6.668,1.428-7.379c8.41-5.494,7.813-0.184,11.186-2.645c1.74-1.27,3.133-2.805,3.738-4.912         c2.164-7.572-3.006-20.76-8.773-26.529c-1.879-1.879-4.768-3.062-8.025-3.686c-1.252-1.717-3.271-3.361-6.132-4.881         c-5.391-2.863-12.074-4.006-18.266-2.883c0.99,0.09,3.256,2.137,4.168,2.273c-1.381,0.936-5.053,0.816-5.029,2.896         c4.916-0.492,10.303,0.285,14.834,2.297c-3.602,0.41-6.955,1.299-9.311,2.543c-6.854,3.602-8.656,10.812-6.854,20.914         c1.807,10.096,9.742,46.869,12.256,59.127c2.527,12.258-5.402,20.188-10.449,22.352l5.408,0.359l-1.801,3.973         c6.484,0.717,13.695-1.443,13.695-1.443c-1.438,3.972-11.176,5.406-11.176,5.406s4.686,1.443,12.258-1.445         c7.578-2.883,12.267-4.684,12.267-4.684l3.602,9.373l6.854-6.85l2.889,7.211C147.064,162.955,152.469,161.15,150.66,152.859z         "
                   id="path32" /><path
                   fill="#2D4F8E"
                   d="M109.211,70.074c0-2.092,1.693-3.787,3.789-3.787c2.09,0,3.785,1.695,3.785,3.787         c0,2.094-1.695,3.787-3.785,3.787C110.904,73.861,109.211,72.168,109.211,70.074z"
                   id="path34" /><path
                   fill="#FFFFFF"
                   d="M113.697,68.812c0-0.545,0.441-0.984,0.98-0.984c0.543,0,0.984,0.439,0.984,0.984         c0,0.543-0.441,0.984-0.984,0.984C114.139,69.797,113.697,69.355,113.697,68.812z"
                   id="path36" /><path
                   fill="#2D4F8E"
                   d="M135.057,67.828c0-1.793,1.461-3.25,3.252-3.25c1.801,0,3.256,1.457,3.256,3.25         c0,1.801-1.455,3.258-3.256,3.258C136.518,71.086,135.057,69.629,135.057,67.828z"
                   id="path38" /><path
                   fill="#FFFFFF"
                   d="M138.914,66.746c0-0.463,0.379-0.842,0.838-0.842c0.477,0,0.844,0.379,0.844,0.842         c0,0.469-0.367,0.842-0.844,0.842C139.293,67.588,138.914,67.215,138.914,66.746z"
                   id="path40" /><linearGradient
                   id="SVGID_4_"
                   gradientUnits="userSpaceOnUse"
                   x1="255.5088"
                   y1="-590.3633"
                   x2="264.0762"
                   y2="-590.3633"
                   gradientTransform="matrix(1 0 0 -1 -150 -530)"><stop
                     offset="0.0056"
                     style="stop-color:#6176B9"
                     id="stop43" /><stop
                     offset="0.691"
                     style="stop-color:#394A9F"
                     id="stop45" /></linearGradient><path
                   fill="url(#SVGID_4_)"
                   d="M114.076,59.101c0,0-2.854-1.291-5.629,0.453c-2.77,1.742-2.668,3.523-2.668,3.523         s-1.473-3.283,2.453-4.891C112.162,56.576,114.076,59.101,114.076,59.101z"
                   id="path47" /><linearGradient
                   id="SVGID_5_"
                   gradientUnits="userSpaceOnUse"
                   x1="282.4629"
                   y1="-587.7539"
                   x2="290.2676"
                   y2="-587.7539"
                   gradientTransform="matrix(1 0 0 -1 -150 -530)"><stop
                     offset="0.0056"
                     style="stop-color:#6176B9"
                     id="stop50" /><stop
                     offset="0.691"
                     style="stop-color:#394A9F"
                     id="stop52" /></linearGradient><path
                   fill="url(#SVGID_5_)"
                   d="M140.268,58.841c0,0-2.051-1.172-3.643-1.152c-3.268,0.043-4.162,1.488-4.162,1.488         s0.549-3.445,4.734-2.754C139.463,56.8,140.268,58.841,140.268,58.841z"
                   id="path54" /></g></g></g></g></g><path
         fill="#FDD20A"
         d="M124.59,84.678c0.379-2.291,6.299-6.625,10.49-6.887c4.201-0.264,5.51-0.205,9.01-1.043    c3.508-0.838,12.535-3.088,15.033-4.242c2.504-1.156,13.102,0.572,5.631,4.738c-3.234,1.809-11.945,5.131-18.172,6.988    c-6.219,1.861-9.99-1.777-12.059,1.281c-1.646,2.432-0.334,5.762,7.098,6.453c10.037,0.93,19.66-4.52,20.719-1.625    c1.064,2.895-8.625,6.508-14.527,6.623c-5.891,0.111-17.776-3.896-19.553-5.137C126.475,90.588,124.096,87.697,124.59,84.678z"
         id="path56" /></g></g><g
     id="g58"><g
       id="g60"><path
         fill="#4C4C4C"
         d="M22.754,179.957v-24.598h8.914c8.487,0,12.352,6.236,12.352,12.033c0,6.254-3.819,12.562-12.352,12.562    L22.754,179.957L22.754,179.957z M25.588,177.123h6.08c6.575,0,9.518-4.904,9.518-9.766c0-4.465-2.979-9.271-9.518-9.271h-6.08    V177.123z"
         id="path62" /></g><g
       id="g64"><path
         fill="#4C4C4C"
         d="M55.245,180.24c-4.554,0-7.497-3.137-7.497-7.992v-9.551h2.657v9.516c0,3.496,2.034,5.584,5.442,5.584    c3.195-0.035,5.513-2.488,5.513-5.832v-9.268h2.657v17.26h-2.414l-0.152-3.002l-0.412,0.518    C59.607,179.273,57.658,180.205,55.245,180.24z"
         id="path66" /></g><g
       id="g68"><path
         fill="#4C4C4C"
         d="M76.976,180.275c-4.49,0-9.02-2.77-9.02-8.949c0-5.354,3.625-8.949,9.02-8.949    c2.361,0,4.436,0.842,6.168,2.502l-1.67,1.734c-1.175-1.096-2.781-1.721-4.427-1.721c-3.768,0-6.399,2.646-6.399,6.434    c0,4.445,3.196,6.436,6.364,6.436c1.782,0,3.4-0.636,4.573-1.791l1.736,1.736C81.574,179.412,79.44,180.275,76.976,180.275z"
         id="path70" /></g><g
       id="g72"><polygon
         fill="#4C4C4C"
         points="97.873,179.957 89.438,171.521 89.438,179.957 86.816,179.957 86.816,155.395 89.438,155.395     89.438,170.252 96.811,162.697 100.248,162.697 92.114,170.831 101.241,179.922 101.241,179.957   "
         id="polygon74" /></g><g
       id="g76"><path
         fill="#4C4C4C"
         d="M104.507,179.957v-24.598h8.913c8.487,0,12.354,6.236,12.354,12.033c0,6.254-3.817,12.562-12.354,12.562    L104.507,179.957L104.507,179.957z M107.34,177.123h6.08c6.575,0,9.519-4.904,9.519-9.766c0-4.465-2.979-9.271-9.519-9.271h-6.08    V177.123z"
         id="path78" /></g><g
       id="g80"><path
         fill="#4C4C4C"
         d="M136.996,180.24c-4.555,0-7.496-3.137-7.496-7.992v-9.551h2.657v9.516c0,3.496,2.034,5.584,5.44,5.584    c3.193-0.035,5.514-2.488,5.514-5.832v-9.268h2.656v17.26h-2.416l-0.149-3.002l-0.412,0.518    C141.357,179.273,139.409,180.205,136.996,180.24z"
         id="path82" /></g><g
       id="g84"><path
         fill="#4C4C4C"
         d="M158.729,180.275c-4.49,0-9.021-2.77-9.021-8.949c0-5.354,3.625-8.949,9.021-8.949    c2.36,0,4.438,0.842,6.168,2.502l-1.67,1.734c-1.176-1.096-2.781-1.721-4.428-1.721c-3.768,0-6.398,2.646-6.398,6.434    c0,4.445,3.197,6.436,6.363,6.436c1.782,0,3.4-0.636,4.573-1.792l1.685,1.688l-0.088,0.09l0.049,0.049    C163.253,179.441,161.15,180.275,158.729,180.275z"
         id="path86" /></g><g
       id="g88"><polygon
         fill="#4C4C4C"
         points="179.625,179.957 171.189,171.521 171.189,179.957 168.568,179.957 168.568,155.395     171.189,155.395 171.189,170.252 178.562,162.697 182.001,162.697 173.867,170.831 182.993,179.922 182.993,179.957   "
         id="polygon90" /></g><g
       id="g92"><path
         fill="#4C4C4C"
         d="M196.908,180.418c-9.457,0-12.812-6.75-12.812-12.529c-0.019-3.765,1.256-7.125,3.584-9.467    c2.293-2.305,5.473-3.523,9.193-3.523c3.367,0,6.537,1.279,8.938,3.604l-1.606,1.869c-1.886-1.763-4.681-2.853-7.329-2.853    c-6.854,0-9.979,5.375-9.979,10.369c0,4.912,3.105,9.873,10.049,9.873c2.529,0,4.885-0.867,6.81-2.512l0.088-0.074v-6.064h-7.729    v-2.479h10.277v9.646C203.745,179.074,200.652,180.418,196.908,180.418z"
         id="path94" /></g><g
       id="g96"><path
         fill="#4C4C4C"
         d="M218.643,180.275c-5.187,0-8.949-3.748-8.949-8.914c0-5.246,3.766-9.055,8.949-9.055    c5.289,0,8.983,3.723,8.983,9.055C227.626,176.527,223.848,180.275,218.643,180.275z M218.677,164.715    c-3.726,0-6.327,2.734-6.327,6.646c0,3.729,2.646,6.436,6.293,6.436c3.709,0,6.326-2.646,6.362-6.434    C225.005,167.51,222.344,164.715,218.677,164.715z"
         id="path98" /></g></g><g
     id="g100"><path
       fill="#65BC46"
       d="M129.133,115.975c0,0-14.1-7.521-14.33-4.47c-0.238,3.056,0,15.509,1.643,16.451   c1.646,0.938,13.395-6.108,13.395-6.108L129.133,115.975z"
       id="path102" /><path
       fill="#65BC46"
       d="M134.535,115.501c0,0,9.635-7.285,11.754-6.815c2.111,0.478,2.582,15.51,0.701,16.224   c-1.881,0.696-12.908-3.816-12.908-3.816L134.535,115.501z"
       id="path104" /><path
       fill="#43A244"
       d="M125.719,116.771c0,4.931-0.709,7.049,1.41,7.517c2.112,0.473,6.105,0,7.518-0.938   c1.41-0.94,0.232-7.281-0.235-8.465C133.938,113.714,125.719,114.657,125.719,116.771z"
       id="path106" /><path
       fill="#65BC46"
       d="M126.615,115.675c0,4.933-0.707,7.05,1.41,7.519c2.109,0.474,6.104,0,7.518-0.938   c1.41-0.941,0.232-7.279-0.238-8.466C134.834,112.618,126.615,113.562,126.615,115.675z"
       id="path108" /></g><path
     fill="#FFFFFF"
     d="M140.029,128.698c-4.133,1.052-8.46,1.613-12.916,1.613c-4.715,0-9.282-0.637-13.631-1.811l0.05,0.413  c4.334,1.165,8.884,1.796,13.581,1.796c4.511,0,8.89-0.573,13.068-1.649L140.029,128.698z"
     id="path110" /></svg>